<svg width="235.1px" height="200px" xmlns="http://www.w3.org/2000/svg" viewBox="132.45 -25 235.1 200" style="background: rgba(0, 0, 0, 0);" preserveAspectRatio="xMidYMid"><defs><filter id="editing-vr"><feFlood flood-color="#f00" flood-opacity="0.7" result="c1"></feFlood><feFlood flood-color="#0000ff" flood-opacity="0.7" result="c3"></feFlood><feComposite operator="in" in="c1" in2="SourceAlpha" result="text-c1"></feComposite><feComposite operator="in" in="c3" in2="SourceAlpha" result="text-c3"></feComposite><feOffset in="text-c1" dx="5" dy="-1" result="text1"></feOffset><feOffset in="text-c3" dx="-5" dy="1" result="text3"></feOffset><feBlend in="SourceGraphic" in2="text1" mode="multiply" result="text4"></feBlend><feBlend in="text4" in2="text3" mode="multiply"></feBlend></filter></defs><g filter="url(#editing-vr)"><g transform="translate(171.73500776290894, 114.56999683380127)"><path d="M18.86-68.89L18.86-68.89L18.86-68.89Q16.57-65.94 16.57-61.75L16.57-61.75L16.57-61.75Q16.57-57.55 18.64-54.83L18.64-54.83L18.64-54.83Q20.71-52.10 24.09-50.30L24.09-50.30L24.09-50.30Q27.47-48.51 31.50-46.82L31.50-46.82L31.50-46.82Q35.53-45.13 39.57-43.11L39.57-43.11L39.57-43.11Q43.60-41.09 46.98-38.42L46.98-38.42L46.98-38.42Q50.36-35.75 52.43-31.34L52.43-31.34L52.43-31.34Q54.50-26.92 54.50-21.15L54.50-21.15L54.50-21.15Q54.50-10.14 47.41-4.47L47.41-4.47L47.41-4.47Q40.33 1.20 28.01 1.20L28.01 1.20L28.01 1.20Q15.70 1.20 5.89-5.78L5.89-5.78L5.89-5.78Q6.21-12.97 9.81-18.31L9.81-18.31L9.81-18.31Q14.17-13.08 20.38-9.70L20.38-9.70L20.38-9.70Q26.60-6.32 32.26-6.32L32.26-6.32L32.26-6.32Q37.93-6.32 41.97-8.83L41.97-8.83L41.97-8.83Q44.69-12.10 44.69-17.44L44.69-17.44L44.69-17.44Q44.69-22.78 41.91-26.16L41.91-26.16L41.91-26.16Q39.13-29.54 35.04-31.45L35.04-31.45L35.04-31.45Q30.96-33.35 26.11-35.70L26.11-35.70L26.11-35.70Q21.25-38.04 17.17-40.44L17.17-40.44L17.17-40.44Q13.08-42.84 10.30-47.31L10.30-47.31L10.30-47.31Q7.52-51.77 7.52-57.77L7.52-57.77L7.52-57.77Q7.52-67.80 14.33-72.70L14.33-72.70L14.33-72.70Q21.15-77.61 31.45-77.61L31.45-77.61L31.45-77.61Q41.75-77.61 52.54-72.59L52.54-72.59L52.54-72.59Q51.34-66.16 48.61-60.39L48.61-60.39L48.61-60.39Q44.15-64.86 38.31-67.74L38.31-67.74L38.31-67.74Q32.48-70.63 27.25-70.63L27.25-70.63L27.25-70.63Q22.02-70.63 18.86-68.89ZM69.43 0L69.43-1.09L69.43-1.09Q73.47-31.61 73.47-61.37L73.47-61.37L73.47-61.37Q73.47-70.20 72.92-75.43L72.92-75.43L72.92-76.52L88.07-77.72L88.07-77.72Q88.73-73.47 90.69-67.36L90.69-67.36L90.69-67.36Q94.39-55.59 109.98-10.46L109.98-10.46L109.98-10.46Q118.92-37.60 123.88-54.99L123.88-54.99L123.88-54.99Q128.84-72.38 129.49-76.30L129.49-76.30L145.62-77.94L145.62-76.84L145.62-76.84Q145.52-73.90 145.52-66.27L145.52-66.27L145.52-66.27Q145.52-58.64 146.77-38.04L146.77-38.04L146.77-38.04Q148.02-17.44 150.64-0.76L150.64-0.76L150.64 0L136.47 0L136.47-1.85L136.47-1.85Q136.69-11.45 136.69-20.00L136.69-20.00L136.69-20.00Q136.69-28.56 136.36-35.75L136.36-35.75L136.36-35.75Q136.03-42.95 135.60-48.34L135.60-48.34L135.60-48.34Q135.16-53.74 134.72-57.39L134.72-57.39L134.72-57.39Q134.29-61.04 134.18-63.00L134.18-63.00L134.18-63.00Q131.02-53.63 124.37-32.70L124.37-32.70L124.37-32.70Q117.72-11.77 114.56-0.11L114.56-0.11L102.68 0.98L102.68 0.98Q102.68-4.03 85.13-53.63L85.13-53.63L85.13-53.63Q81.75-63.22 81.42-63.87L81.42-63.87L81.42-63.87Q81.42-63.77 81.20-59.73L81.20-59.73L81.20-59.73Q80.01-37.39 80.01-25.56L80.01-25.56L80.01-25.56Q80.01-13.73 80.22-1.85L80.22-1.85L80.22 0L69.43 0Z" fill="#444"></path></g></g><style>text {
  font-size: 64px;
  font-family: Arial Black;
  dominant-baseline: central;
  text-anchor: middle;
}</style></svg>