<svg width="1115.91875px" height="200px" xmlns="http://www.w3.org/2000/svg" viewBox="-307.959375 -25 1115.91875 200" style="background: rgb(255, 255, 255);" preserveAspectRatio="xMidYMid"><defs><filter id="editing-vr"><feFlood flood-color="#f00" flood-opacity="0.7" result="c1"></feFlood><feFlood flood-color="#0000ff" flood-opacity="0.7" result="c3"></feFlood><feComposite operator="in" in="c1" in2="SourceAlpha" result="text-c1"></feComposite><feComposite operator="in" in="c3" in2="SourceAlpha" result="text-c3"></feComposite><feOffset in="text-c1" dx="5" dy="-1" result="text1"></feOffset><feOffset in="text-c3" dx="-5" dy="1" result="text3"></feOffset><feBlend in="SourceGraphic" in2="text1" mode="multiply" result="text4"></feBlend><feBlend in="text4" in2="text3" mode="multiply"></feBlend></filter></defs><g filter="url(#editing-vr)"><g transform="translate(-152.86502122879028, 126.22999668121338)"><path d="M18.86-68.89L18.86-68.89L18.86-68.89Q16.57-65.94 16.57-61.75L16.57-61.75L16.57-61.75Q16.57-57.55 18.64-54.83L18.64-54.83L18.64-54.83Q20.71-52.10 24.09-50.30L24.09-50.30L24.09-50.30Q27.47-48.51 31.50-46.82L31.50-46.82L31.50-46.82Q35.53-45.13 39.57-43.11L39.57-43.11L39.57-43.11Q43.60-41.09 46.98-38.42L46.98-38.42L46.98-38.42Q50.36-35.75 52.43-31.34L52.43-31.34L52.43-31.34Q54.50-26.92 54.50-21.15L54.50-21.15L54.50-21.15Q54.50-10.14 47.41-4.47L47.41-4.47L47.41-4.47Q40.33 1.20 28.01 1.20L28.01 1.20L28.01 1.20Q15.70 1.20 5.89-5.78L5.89-5.78L5.89-5.78Q6.21-12.97 9.81-18.31L9.81-18.31L9.81-18.31Q14.17-13.08 20.38-9.70L20.38-9.70L20.38-9.70Q26.60-6.32 32.26-6.32L32.26-6.32L32.26-6.32Q37.93-6.32 41.97-8.83L41.97-8.83L41.97-8.83Q44.69-12.10 44.69-17.44L44.69-17.44L44.69-17.44Q44.69-22.78 41.91-26.16L41.91-26.16L41.91-26.16Q39.13-29.54 35.04-31.45L35.04-31.45L35.04-31.45Q30.96-33.35 26.11-35.70L26.11-35.70L26.11-35.70Q21.25-38.04 17.17-40.44L17.17-40.44L17.17-40.44Q13.08-42.84 10.30-47.31L10.30-47.31L10.30-47.31Q7.52-51.77 7.52-57.77L7.52-57.77L7.52-57.77Q7.52-67.80 14.33-72.70L14.33-72.70L14.33-72.70Q21.15-77.61 31.45-77.61L31.45-77.61L31.45-77.61Q41.75-77.61 52.54-72.59L52.54-72.59L52.54-72.59Q51.34-66.16 48.61-60.39L48.61-60.39L48.61-60.39Q44.15-64.86 38.31-67.74L38.31-67.74L38.31-67.74Q32.48-70.63 27.25-70.63L27.25-70.63L27.25-70.63Q22.02-70.63 18.86-68.89ZM86.98 1.20L86.98 1.20L86.98 1.20Q77.83 1.20 74.17-3.54L74.17-3.54L74.17-3.54Q70.52-8.28 70.52-18.20L70.52-18.20L70.52-33.79L70.52-33.79Q70.52-44.15 67.25-51.56L67.25-51.56L67.25-52.32L82.40-52.32L82.40-51.56L82.40-51.56Q80.77-45.78 80.77-37.06L80.77-37.06L80.77-19.95L80.77-19.95Q80.77-13.41 82.40-10.57L82.40-10.57L82.40-10.57Q84.04-7.74 90.36-7.74L90.36-7.74L90.36-7.74Q96.68-7.74 105.19-13.73L105.19-13.73L105.19-33.79L105.19-33.79Q105.19-44.36 102.02-51.56L102.02-51.56L102.02-52.32L117.07-52.32L117.07-51.56L117.07-51.56Q115.43-45.78 115.43-37.06L115.43-37.06L115.43-18.64L115.43-18.64Q115.43-13.84 117.07-9.21L117.07-9.21L117.07-9.21Q118.70-4.58 120.88-3.05L120.88-3.05L120.99-1.74L108.24 1.31L108.24 1.31Q106.38-3.71 105.62-8.28L105.62-8.28L105.62-8.28Q100.28-3.71 95.92-1.25L95.92-1.25L95.92-1.25Q91.56 1.20 86.98 1.20ZM149.33-17.11L149.33-17.11Q147.04-15.91 145.52-14.39L145.52-14.39L145.52-14.39Q143.99-12.86 143.99-11.94L143.99-11.94L143.99-11.94Q143.99-11.01 144.43-10.46L144.43-10.46L144.43-10.46Q144.86-9.92 145.95-9.48L145.95-9.48L145.95-9.48Q147.04-9.05 148.13-8.77L148.13-8.77L148.13-8.77Q149.22-8.50 151.13-8.18L151.13-8.18L151.13-8.18Q153.04-7.85 154.51-7.63L154.51-7.63L154.51-7.63Q155.98-7.41 158.49-7.03L158.49-7.03L158.49-7.03Q160.99-6.65 162.63-6.43L162.63-6.43L162.63-6.43Q172.33-5.01 176.69-2.40L176.69-2.40L176.69-2.40Q181.05 0.22 181.05 6.43L181.05 6.43L181.05 6.43Q181.05 15.26 172.87 20.06L172.87 20.06L172.87 20.06Q164.70 24.85 153.36 24.85L153.36 24.85L153.36 24.85Q145.19 24.85 138.43 22.24L138.43 22.24L138.43 22.24Q134.62 20.71 132.33 17.82L132.33 17.82L132.33 17.82Q130.04 14.93 130.04 10.79L130.04 10.79L130.04 10.79Q130.04 2.18 140.17-2.07L140.17-2.07L140.17-2.07Q134.72-4.36 134.72-9.10L134.72-9.10L134.72-9.10Q134.72-13.84 143.99-18.86L143.99-18.86L143.99-18.86Q134.40-23.76 134.40-34.88L134.40-34.88L134.40-34.88Q134.40-43.60 140.17-48.45L140.17-48.45L140.17-48.45Q145.95-53.30 154.24-53.30L154.24-53.30L154.24-53.30Q162.52-53.30 167.53-50.47L167.53-50.47L167.53-50.47Q171.46-50.47 180.40-51.34L180.40-51.34L183.34-45.13L173.42-45.34L173.42-45.34Q176.25-41.09 176.25-35.32L176.25-35.32L176.25-35.32Q176.25-26.49 170.48-21.47L170.48-21.47L170.48-21.47Q164.70-16.46 155.54-16.46L155.54-16.46L155.54-16.46Q152.27-16.46 149.33-17.11L149.33-17.11ZM144.53-0.11L144.53-0.11L144.53-0.11Q137.01 2.62 137.01 8.50L137.01 8.50L137.01 8.50Q137.01 14.39 143.01 17.28L143.01 17.28L143.01 17.28Q149.00 20.16 155.98 20.16L155.98 20.16L155.98 20.16Q164.48 20.16 169.06 16.35L169.06 16.35L169.06 16.35Q171.78 14.17 171.78 10.79L171.78 10.79L171.78 10.79Q171.78 7.96 169.28 6.00L169.28 6.00L169.28 6.00Q167.10 4.25 156.74 2.40L156.74 2.40L156.74 2.40Q154.56 1.96 150.15 1.04L150.15 1.04L150.15 1.04Q145.73 0.11 144.53-0.11ZM146.71-28.01L146.71-28.01L146.71-28.01Q149.55-21.91 156.20-21.91L156.20-21.91L156.20-21.91Q160.78-21.91 162.52-23.43L162.52-23.43L162.52-23.43Q165.57-26.92 165.57-34.17L165.57-34.17L165.57-34.17Q165.57-41.42 163.28-44.64L163.28-44.64L163.28-44.64Q160.99-47.85 155.76-47.85L155.76-47.85L155.76-47.85Q150.53-47.85 148.02-46.43L148.02-46.43L148.02-46.43Q145.08-42.40 145.08-36.90L145.08-36.90L145.08-36.90Q145.08-31.39 146.71-28.01ZM212.44 1.20L212.44 1.20L212.44 1.20Q201.00 1.20 194.57-5.89L194.57-5.89L194.57-5.89Q188.13-12.97 188.13-24.58L188.13-24.58L188.13-24.58Q188.13-36.19 195.33-44.91L195.33-44.91L195.33-44.91Q202.52-53.63 213.20-53.63L213.20-53.63L213.20-53.63Q232.72-53.63 232.72-29.54L232.72-29.54L228.68-25.61L199.69-25.61L199.69-25.61Q199.69-16.46 203.61-11.88L203.61-11.88L203.61-11.88Q207.54-7.30 214.19-7.30L214.19-7.30L214.19-7.30Q216.80-7.30 221.60-8.88L221.60-8.88L221.60-8.88Q226.39-10.46 230.10-12.64L230.10-12.64L232.82-8.50L232.82-8.50Q230.75-6.43 223.83-2.62L223.83-2.62L223.83-2.62Q216.91 1.20 212.44 1.20ZM211.24-48.18L211.24-48.18L211.24-48.18Q206.66-48.18 204.16-46.11L204.16-46.11L204.16-46.11Q202.09-43.27 200.89-38.91L200.89-38.91L200.89-38.91Q199.69-34.55 199.69-31.28L199.69-31.28L222.03-32.16L222.03-32.16Q222.03-48.18 211.24-48.18ZM274.03-53.63L274.03-53.63L274.03-53.63Q277.41-53.63 279.04-52.87L279.04-52.87L279.04-52.87Q279.04-52.21 279.04-51.56L279.04-51.56L279.04-51.56Q279.04-45.13 277.08-39.89L277.08-39.89L277.08-39.89Q272.17-43.05 265.96-43.05L265.96-43.05L265.96-43.05Q262.58-43.05 259.20-41.86L259.20-41.86L259.20-18.53L259.20-18.53Q259.20-7.96 262.36-0.76L262.36-0.76L262.36 0L247.10 0L247.10-0.76L247.10-0.76Q248.96-6.21 248.96-15.26L248.96-15.26L248.96-33.79L248.96-33.79Q248.96-38.48 247.05-43.00L247.05-43.00L247.05-43.00Q245.14-47.52 242.63-49.05L242.63-49.05L242.53-50.36L255.39-53.74L255.39-53.74Q257.13-50.79 258.22-46.87L258.22-46.87L258.22-46.87Q264.76-53.63 274.03-53.63ZM331.91-34.99L331.91-34.99L331.91-15.26L331.91-15.26Q331.91-6.54 333.54-0.76L333.54-0.76L333.54 0L320.02 0L320.02-0.76L320.02-0.76Q321.66-6.54 321.66-15.26L321.66-15.26L321.66-32.70L321.66-32.70Q321.66-38.91 320.02-41.80L320.02-41.80L320.02-41.80Q318.39-44.69 313.48-44.69L313.48-44.69L313.48-44.69Q308.58-44.69 300.30-39.13L300.30-39.13L300.30-18.53L300.30-18.53Q300.30-7.96 303.46-0.76L303.46-0.76L303.46 0L288.20 0L288.20-0.76L288.20-0.76Q290.05-6.21 290.05-15.26L290.05-15.26L290.05-33.79L290.05-33.79Q290.05-38.48 288.14-43.00L288.14-43.00L288.14-43.00Q286.23-47.52 283.73-49.05L283.73-49.05L283.62-50.36L297.90-53.74L298.55-52.65L298.55-52.65Q299.42-48.61 299.86-44.47L299.86-44.47L299.86-44.47Q303.78-47.85 305.47-49.21L305.47-49.21L305.47-49.21Q307.16-50.58 310.27-52.10L310.27-52.10L310.27-52.10Q313.38-53.63 316.10-53.63L316.10-53.63L316.10-53.63Q327.33-53.63 330.60-43.93L330.60-43.93L330.60-43.93Q341.82-53.63 348.15-53.63L348.15-53.63L348.15-53.63Q355.78-53.63 360.03-48.61L360.03-48.61L360.03-48.61Q364.28-43.60 364.28-34.23L364.28-34.23L364.28-18.53L364.28-18.53Q364.28-8.18 367.55-0.76L367.55-0.76L367.55 0L352.18 0L352.18-0.76L352.18-0.76Q354.03-6.21 354.03-15.26L354.03-15.26L354.03-31.94L354.03-31.94Q354.03-44.69 346.08-44.69L346.08-44.69L346.08-44.69Q339.43-44.69 331.69-39.02L331.69-39.02L331.69-39.02Q331.91-36.41 331.91-34.99ZM403.08 1.31L403.08 1.31L403.08 1.31Q391.64 1.31 384.99-5.94L384.99-5.94L384.99-5.94Q378.34-13.19 378.34-24.91L378.34-24.91L378.34-24.91Q378.34-36.62 386.08-45.13L386.08-45.13L386.08-45.13Q393.82-53.63 405.53-53.63L405.53-53.63L405.53-53.63Q417.25-53.63 423.63-46.54L423.63-46.54L423.63-46.54Q430.01-39.46 430.01-27.58L430.01-27.58L430.01-27.58Q430.01-15.70 422.27-7.19L422.27-7.19L422.27-7.19Q414.53 1.31 403.08 1.31ZM418.45-24.85L418.45-24.85L418.45-24.85Q418.45-35.64 415.07-41.53L415.07-41.53L415.07-41.53Q411.69-47.41 403.08-47.41L403.08-47.41L403.08-47.41Q397.52-47.41 394.36-45.02L394.36-45.02L394.36-45.02Q392.40-42.51 391.15-37.39L391.15-37.39L391.15-37.39Q389.89-32.26 389.89-27.58L389.89-27.58L389.89-27.58Q389.89-4.80 406.03-4.80L406.03-4.80L406.03-4.80Q411.04-4.80 414.20-7.08L414.20-7.08L414.20-7.08Q416.27-9.59 417.36-14.82L417.36-14.82L417.36-14.82Q418.45-20.06 418.45-24.85ZM464.34 1.31L464.34 1.31L464.34 1.31Q452.90 1.31 446.25-5.94L446.25-5.94L446.25-5.94Q439.60-13.19 439.60-24.91L439.60-24.91L439.60-24.91Q439.60-36.62 447.34-45.13L447.34-45.13L447.34-45.13Q455.08-53.63 466.79-53.63L466.79-53.63L466.79-53.63Q478.51-53.63 484.89-46.54L484.89-46.54L484.89-46.54Q491.26-39.46 491.26-27.58L491.26-27.58L491.26-27.58Q491.26-15.70 483.52-7.19L483.52-7.19L483.52-7.19Q475.79 1.31 464.34 1.31ZM479.71-24.85L479.71-24.85L479.71-24.85Q479.71-35.64 476.33-41.53L476.33-41.53L476.33-41.53Q472.95-47.41 464.34-47.41L464.34-47.41L464.34-47.41Q458.78-47.41 455.62-45.02L455.62-45.02L455.62-45.02Q453.66-42.51 452.40-37.39L452.40-37.39L452.40-37.39Q451.15-32.26 451.15-27.58L451.15-27.58L451.15-27.58Q451.15-4.80 467.28-4.80L467.28-4.80L467.28-4.80Q472.30-4.80 475.46-7.08L475.46-7.08L475.46-7.08Q477.53-9.59 478.62-14.82L478.62-14.82L478.62-14.82Q479.71-20.06 479.71-24.85ZM536.28-53.63L536.28-53.63L536.28-53.63Q544.13-53.63 548.43-48.61L548.43-48.61L548.43-48.61Q552.74-43.60 552.74-34.23L552.74-34.23L552.74-18.53L552.74-18.53Q552.74-8.18 556.01-0.76L556.01-0.76L556.01 0L540.64 0L540.64-0.76L540.64-0.76Q542.49-6.21 542.49-15.26L542.49-15.26L542.49-31.94L542.49-31.94Q542.49-38.26 540.59-41.47L540.59-41.47L540.59-41.47Q538.68-44.69 532.90-44.69L532.90-44.69L532.90-44.69Q527.12-44.69 518.08-39.13L518.08-39.13L518.08-18.53L518.08-18.53Q518.08-7.96 521.24-0.76L521.24-0.76L521.24 0L505.98 0L505.98-0.76L505.98-0.76Q507.83-6.21 507.83-15.26L507.83-15.26L507.83-33.79L507.83-33.79Q507.83-38.48 505.92-43.00L505.92-43.00L505.92-43.00Q504.02-47.52 501.51-49.05L501.51-49.05L501.40-50.36L515.68-53.74L516.33-52.65L516.33-52.65Q517.21-48.61 517.64-44.47L517.64-44.47L517.64-44.47Q521.67-47.63 523.91-49.16L523.91-49.16L523.91-49.16Q526.14-50.69 529.63-52.16L529.63-52.16L529.63-52.16Q533.12-53.63 536.28-53.63ZM585.33-12.43L586.53-11.77L586.53-11.77Q588.27-10.03 588.27-4.47L588.27-4.47L588.27-4.47Q588.27-3.05 588.06-1.85L588.06-1.85L586.97-0.98L586.97-0.98Q581.62 0.65 574.98 1.09L574.98 1.09L573.78 0.55L573.78 0.55Q571.92-2.94 571.92-8.28L571.92-8.28L571.92-8.28Q571.92-8.83 571.92-9.37L571.92-9.37L573.01-10.36L573.01-10.36Q578.79-12.43 584.24-12.43L584.24-12.43L584.24-12.43Q584.78-12.43 585.33-12.43L585.33-12.43ZM619.99-46.22L619.99-46.22Q616.39-44.04 614.32-38.64L614.32-38.64L614.32-38.64Q612.25-33.24 612.25-25.78L612.25-25.78L612.25-25.78Q612.25-18.31 615.25-12.75L615.25-12.75L615.25-12.75Q618.25-7.19 624.79-7.19L624.79-7.19L624.79-7.19Q629.15-7.19 634.93-9.21L634.93-9.21L634.93-9.21Q640.70-11.23 642.56-12.64L642.56-12.64L645.28-8.39L645.28-8.39Q631.33 1.20 624.13 1.20L624.13 1.20L624.13 1.20Q613.23 1.20 606.97-6.21L606.97-6.21L606.97-6.21Q600.70-13.63 600.70-25.61L600.70-25.61L600.70-25.61Q600.70-37.60 608.82-45.67L608.82-45.67L608.82-45.67Q616.94-53.74 627.35-53.74L627.35-53.74L627.35-53.74Q637.76-53.74 644.63-49.05L644.63-49.05L644.63-49.05Q640.38-42.29 639.07-40.88L639.07-40.88L639.07-40.88Q631.65-46.54 624.90-46.54L624.90-46.54L624.90-46.54Q622.39-46.54 619.99-46.22L619.99-46.22ZM678.85 1.31L678.85 1.31L678.85 1.31Q667.41 1.31 660.76-5.94L660.76-5.94L660.76-5.94Q654.11-13.19 654.11-24.91L654.11-24.91L654.11-24.91Q654.11-36.62 661.85-45.13L661.85-45.13L661.85-45.13Q669.59-53.63 681.30-53.63L681.30-53.63L681.30-53.63Q693.02-53.63 699.40-46.54L699.40-46.54L699.40-46.54Q705.77-39.46 705.77-27.58L705.77-27.58L705.77-27.58Q705.77-15.70 698.04-7.19L698.04-7.19L698.04-7.19Q690.30 1.31 678.85 1.31ZM694.22-24.85L694.22-24.85L694.22-24.85Q694.22-35.64 690.84-41.53L690.84-41.53L690.84-41.53Q687.46-47.41 678.85-47.41L678.85-47.41L678.85-47.41Q673.29-47.41 670.13-45.02L670.13-45.02L670.13-45.02Q668.17-42.51 666.92-37.39L666.92-37.39L666.92-37.39Q665.66-32.26 665.66-27.58L665.66-27.58L665.66-27.58Q665.66-4.80 681.79-4.80L681.79-4.80L681.79-4.80Q686.81-4.80 689.97-7.08L689.97-7.08L689.97-7.08Q692.04-9.59 693.13-14.82L693.13-14.82L693.13-14.82Q694.22-20.06 694.22-24.85ZM764.20-34.99L764.20-34.99L764.20-15.26L764.20-15.26Q764.20-6.54 765.83-0.76L765.83-0.76L765.83 0L752.32 0L752.32-0.76L752.32-0.76Q753.95-6.54 753.95-15.26L753.95-15.26L753.95-32.70L753.95-32.70Q753.95-38.91 752.32-41.80L752.32-41.80L752.32-41.80Q750.68-44.69 745.78-44.69L745.78-44.69L745.78-44.69Q740.87-44.69 732.59-39.13L732.59-39.13L732.59-18.53L732.59-18.53Q732.59-7.96 735.75-0.76L735.75-0.76L735.75 0L720.49 0L720.49-0.76L720.49-0.76Q722.34-6.21 722.34-15.26L722.34-15.26L722.34-33.79L722.34-33.79Q722.34-38.48 720.44-43.00L720.44-43.00L720.44-43.00Q718.53-47.52 716.02-49.05L716.02-49.05L715.91-50.36L730.19-53.74L730.85-52.65L730.85-52.65Q731.72-48.61 732.15-44.47L732.15-44.47L732.15-44.47Q736.08-47.85 737.77-49.21L737.77-49.21L737.77-49.21Q739.46-50.58 742.56-52.10L742.56-52.10L742.56-52.10Q745.67-53.63 748.39-53.63L748.39-53.63L748.39-53.63Q759.62-53.63 762.89-43.93L762.89-43.93L762.89-43.93Q774.12-53.63 780.44-53.63L780.44-53.63L780.44-53.63Q788.07-53.63 792.32-48.61L792.32-48.61L792.32-48.61Q796.57-43.60 796.57-34.23L796.57-34.23L796.57-18.53L796.57-18.53Q796.57-8.18 799.84-0.76L799.84-0.76L799.84 0L784.47 0L784.47-0.76L784.47-0.76Q786.33-6.21 786.33-15.26L786.33-15.26L786.33-31.94L786.33-31.94Q786.33-44.69 778.37-44.69L778.37-44.69L778.37-44.69Q771.72-44.69 763.98-39.02L763.98-39.02L763.98-39.02Q764.20-36.41 764.20-34.99Z" fill="#444"></path></g></g><style>text {
  font-size: 64px;
  font-family: Arial Black;
  dominant-baseline: central;
  text-anchor: middle;
}</style></svg>