<svg width="138.284375px" height="121.39999999999999px" xmlns="http://www.w3.org/2000/svg" viewBox="180.8578125 14.300000000000004 138.284375 121.39999999999999" style="background: rgba(0, 0, 0, 0);" preserveAspectRatio="xMidYMid"><defs><filter id="editing-vr"><feFlood flood-color="#f00" flood-opacity="0.7" result="c1"></feFlood><feFlood flood-color="#00f" flood-opacity="0.7" result="c3"></feFlood><feComposite operator="in" in="c1" in2="SourceAlpha" result="text-c1"></feComposite><feComposite operator="in" in="c3" in2="SourceAlpha" result="text-c3"></feComposite><feOffset in="text-c1" dx="5" dy="-1" result="text1"></feOffset><feOffset in="text-c3" dx="-5" dy="1" result="text3"></feOffset><feBlend in="SourceGraphic" in2="text1" mode="multiply" result="text4"></feBlend><feBlend in="text4" in2="text3" mode="multiply"></feBlend></filter></defs><g filter="url(#editing-vr)"><g transform="translate(206.67001277208328, 97.39999961853027)"><path d="M7.68 0L0.64 0L8.32-42.24L22.08-42.24L32.06-13.18L37.38-42.24L44.48-42.18L36.67 0L22.02 0L12.80-27.97L7.68 0ZM72-20.61L84.93-21.76L84.93-21.76Q80.32-11.65 80.32 0.06L80.32 0.06L80.32 0.06Q78.59 1.28 76.06 1.28L76.06 1.28L76.06 1.28Q73.54 1.28 71.94 0.10L71.94 0.10L71.94 0.10Q70.34-1.09 70.02-2.30L70.02-2.30L70.02-2.30Q68.42-0.64 65.82 0.32L65.82 0.32L65.82 0.32Q63.23 1.28 60.48 1.28L60.48 1.28L60.48 1.28Q57.73 1.28 55.33 0.38L55.33 0.38L55.33 0.38Q52.93-0.51 51.07-2.50L51.07-2.50L51.07-2.50Q46.98-6.85 46.98-15.10L46.98-15.10L46.98-15.10Q46.98-27.90 53.82-35.58L53.82-35.58L53.82-35.58Q60.86-43.52 73.34-43.52L73.34-43.52L73.34-43.52Q81.98-43.52 85.06-39.04L85.06-39.04L85.06-39.04Q86.02-37.63 86.02-35.94L86.02-35.94L86.02-35.94Q86.02-34.24 85.28-32.80L85.28-32.80L85.28-32.80Q84.54-31.36 83.39-30.21L83.39-30.21L83.39-30.21Q80.64-27.65 77.25-27.65L77.25-27.65L77.25-27.65Q75.90-27.65 74.62-28.10L74.62-28.10L74.62-28.10Q74.88-30.02 74.88-32.26L74.88-32.26L74.88-32.26Q74.88-34.50 74.72-35.52L74.72-35.52L74.72-35.52Q74.56-36.54 74.18-37.38L74.18-37.38L74.18-37.38Q73.34-39.10 71.52-39.10L71.52-39.10L71.52-39.10Q69.70-39.10 67.68-37.15L67.68-37.15L67.68-37.15Q65.66-35.20 64.06-32L64.06-32L64.06-32Q60.54-24.83 60.54-16.19L60.54-16.19L60.54-16.19Q60.54-12.22 62.08-9.41L62.08-9.41L62.08-9.41Q63.74-6.34 66.69-6.34L66.69-6.34L66.69-6.34Q67.71-6.34 68.64-6.85L68.64-6.85L68.64-6.85Q69.57-7.36 69.95-7.74L69.95-7.74L72-20.61Z" fill="#444"></path></g></g><style>text {
  font-size: 64px;
  font-family: Arial Black;
  dominant-baseline: central;
  text-anchor: middle;
}</style></svg>